<svg xmlns="http://www.w3.org/2000/svg" viewBox="0 0 32 32">
  <path d="M16.47 0C12.2-.13 7.9 1.56 4.84 4.53 1.78 7.5 0 11.73 0 16c0 4.2 1.73 8.35 4.7 11.3C7.64 30.28 11.8 32 16 32c4.2 0 8.35-1.73 11.3-4.7C30.28 24.36 32 20.2 32 16c0-4.1-1.67-8.2-4.53-11.16C24.6 1.9 20.57.12 16.47 0zm-.4 2.13c3.72 0 7.36 1.52 9.96 4.12 2.6 2.6 4.1 6.18 4.1 9.8 0 3.65-1.5 7.22-4.1 9.82-2.6 2.6-6.24 4.13-9.97 4.13-3.73 0-7.4-1.52-10-4.13C3.46 23.27 2 19.7 2 16.07c0-3.64 1.46-7.22 4.06-9.82 2.6-2.6 6.27-4.13 10-4.13zm0 2.1c-3.03 0-6.08 1.25-8.26 3.43l-.02.03C5.63 9.85 4.3 12.96 4.3 16.05c0 3.12 1.34 6.23 3.5 8.4 2.2 2.18 5.24 3.45 8.26 3.45 3.02 0 6.08-1.26 8.25-3.43 2.2-2.18 3.48-5.3 3.48-8.4 0-3.12-1.3-6.24-3.47-8.4-2.16-2.2-5.22-3.45-8.24-3.45zm-.63 5c1.15 0 2.24.74 3.28.74.5 0 .9-.17 1.3-.53.1-.1.26-.1.36 0 .1.08.1.24.03.34-.86 1.18-1.75 1.75-2.74 1.75-1.27 0-2.37-.9-3.35-.9-.26 0-.5.07-.74.2-.1.08-.23.04-.3-.05-.1-.1-.08-.22 0-.3.63-.86 1.34-1.26 2.18-1.26zm-4.97 2.08h1.6l.9 4.36 2.65-1.75v1.76l2.97-1.7v1.7l2.96-1.72V20c-.04.43-.3.6-.68.7H10.5c-.34-.07-.74-.24-.78-.8v-3.4l.75-5.2zm5.97 5.92c-.15 0-.25.13-.25.28v1.8c0 .16.1.3.24.3h.68c.15 0 .25-.14.25-.3v-1.8c0-.15-.1-.28-.25-.28h-.68zm-3 .03c-.15 0-.28.14-.28.28v1.8c0 .16.13.3.28.3h.65c.14 0 .28-.14.28-.3v-1.8c0-.14-.14-.28-.3-.28h-.64zm5.97 0c-.14 0-.27.1-.27.25v1.8c0 .16.13.3.28.3h.66c.15 0 .28-.14.28-.3v-1.8c0-.15-.13-.25-.28-.25h-.65z"/>
</svg>
